PathFileType	4	(X/Y/Z)	TVC_4_BWA_8_walk_RCNL2025.trc
DataRate	CameraRate	NumFrames	NumMarkers	Units	OrigDataRate	OrigDataStartFrame	OrigNumFrames
100	100	6	27	mm	100	111	294
Frame#	Time	R_Shoulder			L_Shoulder			C7			J_Notch			R_Elbow			L_Elbow			R_Wrist			L_Wrist			R_Asis			L_Asis			R_Psis			L_Psis			Sacral			Thoracic			Sternum			R_Thigh_Lateral			R_Knee_Lateral			R_Shank_Lateral			R_Ankle_Lateral			R_Heel			R_Toe			L_Thigh_Lateral			L_Knee_Lateral			L_Shank_Lateral			L_Ankle_Lateral			L_Heel			L_Toe		
		X1	Y1	Z1	X2	Y2	Z2	X3	Y3	Z3	X4	Y4	Z4	X5	Y5	Z5	X6	Y6	Z6	X7	Y7	Z7	X8	Y8	Z8	X9	Y9	Z9	X10	Y10	Z10	X11	Y11	Z11	X12	Y12	Z12	X13	Y13	Z13	X14	Y14	Z14	X15	Y15	Z15	X16	Y16	Z16	X17	Y17	Z17	X18	Y18	Z18	X19	Y19	Z19	X20	Y20	Z20	X21	Y21	Z21	X22	Y22	Z22	X23	Y23	Z23	X24	Y24	Z24	X25	Y25	Z25	X26	Y26	Z26	X27	Y27	Z27
111	1.10000000	-465.362701	1293.502808	364.331390	-448.897980	1312.826172	-16.259392	-512.906616	1371.341431	185.821808	-376.029541	1244.328735	164.492081	-555.446106	988.935181	418.716400	-480.530823	991.754700	-103.523590	-516.038742	762.187347	416.788864	-340.538971	826.439606	-88.903294	-465.719604	857.932556	341.950165	-520.184753	850.951111	-8.173717	-626.377136	896.770081	238.304962	-635.196594	896.668335	146.868423	-630.786865	896.719208	192.586693	-608.908386	1128.876221	177.821609	-350.525482	1052.783569	159.038742	-383.351959	521.825928	363.052582	-367.197968	437.835999	309.371796	-334.498352	271.274323	376.218048	-282.424774	61.088661	281.148590	-326.845245	42.582451	234.668503	-154.422043	81.535973	256.724609	-532.227234	491.771912	-1.983639	-549.326111	411.155457	51.207668	-587.432922	292.788147	11.197141	-669.219666	56.509487	101.790329	-712.671936	53.350361	151.033386	-535.028015	39.502251	109.953445
112	1.11000000	-455.887848	1292.524048	365.357941	-439.813324	1312.164429	-15.279049	-503.583832	1370.648804	186.948257	-366.737122	1243.595825	165.368256	-547.508423	988.452515	419.652588	-472.060547	991.113953	-102.708023	-509.336105	761.587982	418.303482	-330.569656	826.897888	-88.011414	-455.983276	857.055786	342.474335	-511.160675	849.722412	-7.450713	-616.830444	896.046814	239.296707	-625.869324	895.855896	147.883423	-621.349884	895.951355	193.590065	-599.597961	1128.203125	178.789459	-341.149902	1051.983032	159.686432	-374.838409	520.272827	363.630524	-358.837097	436.509430	309.351898	-324.674133	269.794678	375.453888	-272.406921	60.423702	279.679749	-317.411469	42.213852	233.562775	-144.845444	79.802887	253.972717	-525.295837	490.806763	-1.383186	-543.957336	410.474243	51.918571	-583.907043	292.526001	11.687165	-669.184021	57.308651	101.875763	-712.541870	54.504326	151.142517	-534.915039	39.496929	109.931488
113	1.12000000	-446.334137	1291.621948	366.457916	-430.755707	1311.587646	-14.227587	-494.234253	1370.050903	188.164902	-357.416321	1242.964844	166.304138	-539.241699	987.988831	420.685333	-463.825653	990.536377	-101.710808	-502.196014	761.044067	419.837555	-321.097549	827.211121	-87.066395	-446.219879	856.311646	343.077087	-501.960907	848.529297	-6.668307	-607.242676	895.434387	240.338776	-616.499573	895.125488	148.939026	-611.871124	895.279938	194.638901	-590.255676	1127.626587	179.860474	-331.727478	1051.296509	160.398010	-365.798737	519.178955	363.811890	-350.031006	435.444489	309.200623	-315.653717	268.220520	374.417389	-264.779999	59.591656	278.388031	-310.634552	42.023785	232.745316	-137.668762	76.629814	251.230179	-517.976501	489.906311	-0.675429	-538.151306	409.907776	52.704037	-580.137451	292.473602	12.189608	-669.051636	58.439938	101.924690	-712.340759	56.042679	151.228088	-534.767822	39.482056	109.890747
114	1.13000000	-436.705994	1290.822754	367.624695	-421.724640	1311.119019	-13.109607	-484.861542	1369.565796	189.465363	-348.072998	1242.453125	167.295181	-530.639099	987.564514	421.808136	-455.815125	990.047852	-100.532684	-494.612411	760.567078	421.387238	-312.134735	827.381348	-86.070229	-436.446503	855.736572	343.760712	-492.582031	847.420410	-5.829746	-597.626221	894.956787	241.424667	-607.099426	894.496582	150.028885	-602.362823	894.726685	195.726776	-580.888733	1127.164917	181.026825	-322.268951	1050.747070	161.173111	-356.361755	518.539551	363.633850	-340.844055	434.668121	308.939087	-307.255188	266.637360	373.112244	-259.156342	58.649487	277.289215	-306.018585	42.030472	232.171402	-132.422623	72.298080	248.640747	-510.239990	489.100922	0.145164	-531.786011	409.487183	53.556885	-576.025513	292.718414	12.688753	-668.756897	60.001507	101.915688	-712.007629	58.092972	151.266891	-534.589966	39.448277	109.838173
115	1.14000000	-427.009216	1290.150757	368.850159	-412.719604	1310.779541	-11.930988	-475.470551	1369.208618	190.841614	-338.713867	1242.075439	168.335709	-521.699585	987.199829	423.014252	-448.017181	989.672729	-99.176483	-486.580322	760.168915	422.948517	-303.690216	827.412201	-85.025158	-426.678589	855.362793	344.525116	-483.031769	846.448181	-4.935921	-587.993469	894.634033	242.547958	-597.681396	893.985901	151.147110	-592.837433	894.309967	196.847534	-571.505005	1126.833618	182.279404	-312.786194	1050.354980	162.010132	-346.639008	518.336060	363.178192	-331.369049	434.191559	308.604279	-299.203003	265.203278	371.608734	-255.108398	57.681049	276.392090	-303.015930	42.254124	231.790268	-128.607391	67.221878	246.341080	-502.034393	488.413849	1.076744	-524.721069	409.237366	54.461788	-571.443970	293.340088	13.165723	-668.222046	62.096539	101.824295	-711.459229	60.796936	151.231033	-534.388794	39.386097	109.784172
116	1.15000000	-417.250885	1289.628052	370.124847	-403.740601	1310.586670	-10.698755	-466.067261	1368.991577	192.284119	-329.346436	1241.843262	169.419037	-512.428162	986.914185	424.296936	-440.419312	989.432495	-97.647499	-478.096130	759.861298	424.517197	-295.769470	827.308777	-83.933704	-416.929535	855.216248	345.367615	-473.329803	845.664734	-3.985175	-578.356384	894.481079	243.702469	-588.258118	893.606384	152.288605	-583.307251	894.043732	197.995537	-562.112732	1126.644287	183.608109	-303.292145	1050.135620	162.905914	-336.711945	518.544312	362.553741	-321.722198	434.007446	308.245331	-291.202118	264.104279	370.046112	-252.221863	56.770294	275.698029	-301.103973	42.690929	231.557541	-125.764603	61.888859	244.433762	-493.280579	487.858368	2.106969	-516.805237	409.173706	55.393269	-566.242004	294.397797	13.596422	-667.359619	64.825417	101.624252	-710.589722	64.300774	151.088821	-534.172852	39.288418	109.741318
